<svg id="svg" version="1.1" xmlns="http://www.w3.org/2000/svg" xmlns:xlink="http://www.w3.org/1999/xlink" width="400" height="400" viewBox="0, 0, 400,400"><g id="svgg"><path id="path0" d="M81.264 50.064 C 79.650 50.484,77.925 51.093,77.431 51.417 C 76.454 52.056,76.293 52.337,74.324 56.800 L 73.000 59.800 73.000 128.800 C 73.000 203.124,72.943 200.808,75.042 211.800 C 75.896 216.274,75.846 216.155,78.015 218.858 C 79.090 220.197,80.243 222.037,80.577 222.946 C 80.911 223.856,81.554 225.616,82.005 226.859 C 82.457 228.101,83.505 229.901,84.335 230.859 C 85.165 231.816,86.343 233.466,86.953 234.525 C 87.563 235.583,88.789 237.113,89.677 237.925 C 90.565 238.736,91.765 239.940,92.343 240.600 C 95.509 244.211,100.448 248.508,102.976 249.850 C 104.503 250.660,106.500 252.013,107.415 252.857 C 109.053 254.367,111.414 255.581,116.257 257.406 C 117.608 257.915,119.408 258.790,120.257 259.351 C 127.124 263.887,159.865 263.800,168.677 259.223 C 170.394 258.331,173.299 257.079,175.130 256.441 C 179.151 255.042,180.147 254.184,181.679 250.800 C 182.326 249.370,183.544 247.289,184.384 246.175 C 185.225 245.061,186.493 243.001,187.202 241.596 C 187.911 240.192,189.360 238.169,190.423 237.100 C 191.926 235.589,192.646 234.389,193.660 231.702 C 194.627 229.139,195.498 227.648,197.031 225.930 C 198.307 224.499,199.436 222.708,199.985 221.241 C 200.473 219.936,201.643 217.965,202.584 216.862 C 203.578 215.698,204.915 213.375,205.769 211.328 C 206.765 208.942,207.803 207.217,208.974 206.000 C 212.219 202.630,216.805 192.592,216.793 188.885 C 216.784 186.038,215.797 178.965,215.188 177.382 C 214.938 176.732,214.024 173.509,213.158 170.221 C 211.675 164.589,210.958 162.931,208.595 159.662 C 208.063 158.925,207.037 156.877,206.314 155.109 C 205.511 153.145,204.438 151.331,203.556 150.447 C 202.763 149.651,201.470 148.010,200.683 146.800 C 199.022 144.244,193.410 138.701,190.800 137.038 C 189.810 136.408,188.337 135.035,187.527 133.988 C 186.544 132.718,185.325 131.739,183.867 131.049 C 182.664 130.480,180.822 129.359,179.772 128.558 C 177.883 127.116,176.787 126.682,169.800 124.607 C 167.820 124.019,165.030 122.851,163.600 122.011 C 155.839 117.452,132.081 117.510,125.101 122.104 C 123.110 123.414,120.011 124.606,116.000 125.604 C 115.010 125.851,112.267 126.957,109.905 128.063 C 104.167 130.751,102.828 130.924,101.559 129.145 L 100.600 127.800 100.400 93.400 L 100.200 59.000 98.927 56.565 C 95.758 50.502,89.058 48.036,81.264 50.064 M153.800 149.412 C 159.759 150.105,163.288 151.138,165.473 152.828 C 166.313 153.477,168.260 154.848,169.800 155.875 C 171.340 156.901,173.703 158.834,175.051 160.170 C 176.399 161.507,178.217 163.249,179.093 164.042 C 179.968 164.835,180.812 166.005,180.967 166.642 C 181.123 167.279,182.330 170.012,183.649 172.715 C 188.857 183.387,189.138 201.447,184.208 208.702 C 183.670 209.494,182.741 211.480,182.145 213.115 C 181.549 214.749,180.598 216.509,180.031 217.025 C 179.464 217.541,178.222 218.634,177.271 219.455 C 176.320 220.275,175.185 221.646,174.748 222.503 C 174.250 223.479,173.276 224.459,172.138 225.130 C 171.140 225.718,169.455 226.947,168.395 227.859 C 166.303 229.658,163.874 230.704,158.759 232.010 C 156.950 232.472,154.824 233.174,154.035 233.570 C 148.108 236.543,142.705 236.754,136.600 234.251 C 134.620 233.439,131.290 232.319,129.200 231.761 C 124.473 230.500,122.554 229.662,120.735 228.065 C 119.952 227.377,118.251 226.223,116.955 225.500 C 115.125 224.479,114.227 223.620,112.929 221.651 C 112.011 220.257,110.359 218.280,109.259 217.258 C 107.550 215.670,107.076 214.877,105.999 211.800 C 105.306 209.820,104.191 206.940,103.521 205.400 C 101.077 199.781,100.710 197.941,100.685 191.200 C 100.660 184.461,100.732 184.096,103.274 178.103 C 104.136 176.070,105.122 173.460,105.466 172.303 C 107.856 164.250,121.665 151.720,129.840 150.186 C 137.627 148.724,145.656 148.465,153.800 149.412 M261.600 212.231 C 260.830 212.319,258.040 212.579,255.400 212.807 C 246.922 213.541,232.400 219.383,232.400 222.060 C 232.400 222.812,229.460 228.466,228.343 229.861 C 227.665 230.707,226.422 232.840,225.581 234.600 C 224.739 236.360,223.215 238.776,222.195 239.968 C 221.175 241.160,219.520 243.770,218.518 245.768 C 217.516 247.766,216.257 249.924,215.719 250.565 C 215.182 251.206,213.847 253.514,212.753 255.694 C 211.659 257.873,210.059 260.422,209.196 261.358 C 208.334 262.293,206.916 264.608,206.045 266.502 C 205.174 268.396,203.699 270.903,202.768 272.073 C 201.836 273.243,200.452 275.550,199.692 277.200 C 198.931 278.850,197.622 281.101,196.781 282.202 C 194.301 285.453,194.412 294.107,197.006 299.738 C 197.730 301.312,198.707 303.950,199.176 305.600 C 199.645 307.250,200.298 309.537,200.629 310.682 C 200.959 311.826,201.879 313.716,202.672 314.882 C 203.466 316.047,204.816 318.503,205.673 320.340 C 206.578 322.280,208.027 324.543,209.131 325.740 C 210.176 326.873,211.562 328.520,212.210 329.400 C 214.149 332.032,219.269 337.003,221.404 338.327 C 222.502 339.008,223.878 340.171,224.461 340.912 C 225.045 341.654,226.825 342.944,228.416 343.781 C 230.008 344.617,231.966 345.895,232.769 346.620 C 234.614 348.287,236.104 348.869,242.851 350.561 C 245.850 351.313,249.558 352.480,251.093 353.153 C 258.923 356.589,274.446 356.513,283.400 352.993 C 285.820 352.042,289.780 350.863,292.200 350.372 C 297.110 349.378,298.108 348.965,300.839 346.806 C 301.882 345.982,304.108 344.554,305.786 343.633 C 307.464 342.713,309.800 341.087,310.977 340.020 C 312.155 338.954,313.924 337.610,314.908 337.033 C 316.004 336.391,317.263 335.132,318.157 333.785 C 318.960 332.576,320.468 330.971,321.509 330.219 C 323.682 328.648,323.678 328.654,326.546 322.912 C 330.776 314.444,330.613 311.685,325.531 305.743 C 322.086 301.716,322.147 301.756,318.290 301.012 C 315.617 300.496,314.658 300.573,310.800 301.614 C 309.244 302.033,302.281 308.571,300.200 311.566 C 298.336 314.248,294.551 317.456,291.426 319.000 C 289.853 319.777,287.806 321.207,286.842 322.201 C 282.789 326.384,269.226 327.851,255.116 325.632 C 252.086 325.156,249.135 323.736,246.169 321.327 C 244.831 320.241,242.869 318.944,241.807 318.445 C 240.745 317.946,238.866 316.517,237.630 315.269 C 236.393 314.021,234.709 312.496,233.886 311.879 C 232.910 311.147,231.897 309.759,230.969 307.883 C 230.188 306.302,229.107 304.429,228.568 303.722 C 223.272 296.780,222.878 270.147,227.976 263.717 C 228.812 262.663,229.993 260.810,230.601 259.600 C 231.664 257.483,239.414 249.200,240.330 249.200 C 240.544 249.200,241.870 248.157,243.277 246.882 C 245.244 245.100,246.479 244.347,248.618 243.629 C 250.148 243.114,252.750 242.158,254.400 241.504 C 256.050 240.849,258.030 240.071,258.800 239.775 C 262.642 238.294,275.393 239.268,279.514 241.357 C 280.559 241.886,282.217 242.535,283.200 242.800 C 285.844 243.512,288.634 245.036,291.580 247.377 C 293.021 248.522,295.026 249.968,296.036 250.591 C 297.193 251.305,298.510 252.671,299.600 254.290 C 300.550 255.702,301.909 257.300,302.620 257.842 C 303.331 258.384,304.413 259.587,305.024 260.514 C 309.234 266.897,313.014 269.052,319.134 268.555 C 322.875 268.251,322.759 268.330,327.439 262.946 C 331.797 257.932,331.955 250.434,327.820 244.896 C 326.877 243.633,325.795 241.970,325.416 241.200 C 325.037 240.430,323.488 238.540,321.975 237.000 C 320.461 235.460,318.342 233.300,317.266 232.200 C 313.352 228.198,311.304 226.466,309.259 225.430 C 308.112 224.848,306.226 223.419,305.069 222.252 C 303.118 220.285,302.620 220.021,298.183 218.603 C 295.552 217.762,292.504 216.628,291.409 216.084 C 285.541 213.167,270.454 211.217,261.600 212.231 " stroke="none" fill="currentcolor" fill-rule="evenodd"></path><path id="path1" d="M0.000 200.000 L 0.000 400.000 200.000 400.000 L 400.000 400.000 400.000 200.000 L 400.000 0.000 200.000 0.000 L 0.000 0.000 0.000 200.000 M92.885 50.656 C 95.675 52.051,97.500 53.836,98.927 56.565 L 100.200 59.000 100.400 93.400 L 100.600 127.800 101.559 129.145 C 102.828 130.924,104.167 130.751,109.905 128.063 C 112.267 126.957,115.010 125.851,116.000 125.604 C 120.011 124.606,123.110 123.414,125.101 122.104 C 132.081 117.510,155.839 117.452,163.600 122.011 C 165.030 122.851,167.820 124.019,169.800 124.607 C 176.787 126.682,177.883 127.116,179.772 128.558 C 180.822 129.359,182.664 130.480,183.867 131.049 C 185.325 131.739,186.544 132.718,187.527 133.988 C 188.337 135.035,189.810 136.408,190.800 137.038 C 193.410 138.701,199.022 144.244,200.683 146.800 C 201.470 148.010,202.763 149.651,203.556 150.447 C 204.438 151.331,205.511 153.145,206.314 155.109 C 207.037 156.877,208.063 158.925,208.595 159.662 C 210.958 162.931,211.675 164.589,213.158 170.221 C 214.024 173.509,214.938 176.732,215.188 177.382 C 215.797 178.965,216.784 186.038,216.793 188.885 C 216.805 192.592,212.219 202.630,208.974 206.000 C 207.803 207.217,206.765 208.942,205.769 211.328 C 204.915 213.375,203.578 215.698,202.584 216.862 C 201.643 217.965,200.473 219.936,199.985 221.241 C 199.436 222.708,198.307 224.499,197.031 225.930 C 195.498 227.648,194.627 229.139,193.660 231.702 C 192.646 234.389,191.926 235.589,190.423 237.100 C 189.360 238.169,187.911 240.192,187.202 241.596 C 186.493 243.001,185.225 245.061,184.384 246.175 C 183.544 247.289,182.326 249.370,181.679 250.800 C 180.147 254.184,179.151 255.042,175.130 256.441 C 173.299 257.079,170.394 258.331,168.677 259.223 C 159.865 263.800,127.124 263.887,120.257 259.351 C 119.408 258.790,117.608 257.915,116.257 257.406 C 111.414 255.581,109.053 254.367,107.415 252.857 C 106.500 252.013,104.503 250.660,102.976 249.850 C 100.448 248.508,95.509 244.211,92.343 240.600 C 91.765 239.940,90.565 238.736,89.677 237.925 C 88.789 237.113,87.563 235.583,86.953 234.525 C 86.343 233.466,85.165 231.816,84.335 230.859 C 83.505 229.901,82.457 228.101,82.005 226.859 C 81.554 225.616,80.911 223.856,80.577 222.946 C 80.243 222.037,79.090 220.197,78.015 218.858 C 75.846 216.155,75.896 216.274,75.042 211.800 C 72.943 200.808,73.000 203.124,73.000 128.800 L 73.000 59.800 74.324 56.800 C 75.051 55.150,75.846 53.396,76.090 52.903 C 77.695 49.648,88.090 48.257,92.885 50.656 M136.000 149.248 C 128.244 150.138,127.035 150.540,122.046 153.889 C 113.130 159.874,107.200 166.460,105.466 172.303 C 105.122 173.460,104.136 176.070,103.274 178.103 C 100.732 184.096,100.660 184.461,100.685 191.200 C 100.710 197.941,101.077 199.781,103.521 205.400 C 104.191 206.940,105.306 209.820,105.999 211.800 C 107.076 214.877,107.550 215.670,109.259 217.258 C 110.359 218.280,112.011 220.257,112.929 221.651 C 114.227 223.620,115.125 224.479,116.955 225.500 C 118.251 226.223,119.952 227.377,120.735 228.065 C 122.554 229.662,124.473 230.500,129.200 231.761 C 131.290 232.319,134.620 233.439,136.600 234.251 C 142.705 236.754,148.108 236.543,154.035 233.570 C 154.824 233.174,156.950 232.472,158.759 232.010 C 163.874 230.704,166.303 229.658,168.395 227.859 C 169.455 226.947,171.140 225.718,172.138 225.130 C 173.276 224.459,174.250 223.479,174.748 222.503 C 175.185 221.646,176.320 220.275,177.271 219.455 C 178.222 218.634,179.464 217.541,180.031 217.025 C 180.598 216.509,181.549 214.749,182.145 213.115 C 182.741 211.480,183.670 209.494,184.208 208.702 C 189.138 201.447,188.857 183.387,183.649 172.715 C 182.330 170.012,181.123 167.279,180.967 166.642 C 180.812 166.005,179.968 164.835,179.093 164.042 C 178.217 163.249,176.399 161.507,175.051 160.170 C 173.703 158.834,171.340 156.901,169.800 155.875 C 168.260 154.848,166.313 153.477,165.473 152.828 C 161.385 149.667,147.279 147.954,136.000 149.248 M281.200 213.004 C 285.278 213.614,288.234 214.506,291.409 216.084 C 292.504 216.628,295.552 217.762,298.183 218.603 C 302.620 220.021,303.118 220.285,305.069 222.252 C 306.226 223.419,308.112 224.848,309.259 225.430 C 311.304 226.466,313.352 228.198,317.266 232.200 C 318.342 233.300,320.461 235.460,321.975 237.000 C 323.488 238.540,325.037 240.430,325.416 241.200 C 325.795 241.970,326.877 243.633,327.820 244.896 C 331.955 250.434,331.797 257.932,327.439 262.946 C 322.759 268.330,322.875 268.251,319.134 268.555 C 313.014 269.052,309.234 266.897,305.024 260.514 C 304.413 259.587,303.331 258.384,302.620 257.842 C 301.909 257.300,300.550 255.702,299.600 254.290 C 298.510 252.671,297.193 251.305,296.036 250.591 C 295.026 249.968,293.021 248.522,291.580 247.377 C 288.634 245.036,285.844 243.512,283.200 242.800 C 282.217 242.535,280.559 241.886,279.514 241.357 C 275.393 239.268,262.642 238.294,258.800 239.775 C 258.030 240.071,256.050 240.849,254.400 241.504 C 252.750 242.158,250.148 243.114,248.618 243.629 C 246.479 244.347,245.244 245.100,243.277 246.882 C 241.870 248.157,240.544 249.200,240.330 249.200 C 239.414 249.200,231.664 257.483,230.601 259.600 C 229.993 260.810,228.812 262.663,227.976 263.717 C 222.878 270.147,223.272 296.780,228.568 303.722 C 229.107 304.429,230.188 306.302,230.969 307.883 C 231.897 309.759,232.910 311.147,233.886 311.879 C 234.709 312.496,236.393 314.021,237.630 315.269 C 238.866 316.517,240.745 317.946,241.807 318.445 C 242.869 318.944,244.831 320.241,246.169 321.327 C 249.135 323.736,252.086 325.156,255.116 325.632 C 269.226 327.851,282.789 326.384,286.842 322.201 C 287.806 321.207,289.853 319.777,291.426 319.000 C 294.551 317.456,298.336 314.248,300.200 311.566 C 302.281 308.571,309.244 302.033,310.800 301.614 C 314.658 300.573,315.617 300.496,318.290 301.012 C 322.147 301.756,322.086 301.716,325.531 305.743 C 330.613 311.685,330.776 314.444,326.546 322.912 C 323.678 328.654,323.682 328.648,321.509 330.219 C 320.468 330.971,318.960 332.576,318.157 333.785 C 317.263 335.132,316.004 336.391,314.908 337.033 C 313.924 337.610,312.155 338.954,310.977 340.020 C 309.800 341.087,307.464 342.713,305.786 343.633 C 304.108 344.554,301.882 345.982,300.839 346.806 C 298.108 348.965,297.110 349.378,292.200 350.372 C 289.780 350.863,285.820 352.042,283.400 352.993 C 274.446 356.513,258.923 356.589,251.093 353.153 C 249.558 352.480,245.850 351.313,242.851 350.561 C 236.104 348.869,234.614 348.287,232.769 346.620 C 231.966 345.895,230.008 344.617,228.416 343.781 C 226.825 342.944,225.045 341.654,224.461 340.912 C 223.878 340.171,222.502 339.008,221.404 338.327 C 219.269 337.003,214.149 332.032,212.210 329.400 C 211.562 328.520,210.176 326.873,209.131 325.740 C 208.027 324.543,206.578 322.280,205.673 320.340 C 204.816 318.503,203.466 316.047,202.672 314.882 C 201.879 313.716,200.959 311.826,200.629 310.682 C 200.298 309.537,199.645 307.250,199.176 305.600 C 198.707 303.950,197.730 301.312,197.006 299.738 C 194.412 294.107,194.301 285.453,196.781 282.202 C 197.622 281.101,198.931 278.850,199.692 277.200 C 200.452 275.550,201.836 273.243,202.768 272.073 C 203.699 270.903,205.174 268.396,206.045 266.502 C 206.916 264.608,208.334 262.293,209.196 261.358 C 210.059 260.422,211.659 257.873,212.753 255.694 C 213.847 253.514,215.182 251.206,215.719 250.565 C 216.257 249.924,217.516 247.766,218.518 245.768 C 219.520 243.770,221.175 241.160,222.195 239.968 C 223.215 238.776,224.739 236.360,225.581 234.600 C 226.422 232.840,227.665 230.707,228.343 229.861 C 229.460 228.466,232.400 222.812,232.400 222.060 C 232.400 219.383,246.922 213.541,255.400 212.807 C 258.040 212.579,260.830 212.319,261.600 212.231 C 264.294 211.923,277.434 212.441,281.200 213.004 " stroke="none" fill="currentcolor" fill-rule="evenodd"></path></g></svg>